<?xml version="1.0" encoding="utf-8"?>
<!-- Generator: Adobe Illustrator 16.0.0, SVG Export Plug-In . SVG Version: 6.00 Build 0)  -->
<!DOCTYPE svg PUBLIC "-//W3C//DTD SVG 1.1//EN" "http://www.w3.org/Graphics/SVG/1.1/DTD/svg11.dtd">
<svg version="1.1" id="Layer_1" xmlns="http://www.w3.org/2000/svg" xmlns:xlink="http://www.w3.org/1999/xlink" x="0px" y="0px"
	 width="500px" height="500px" viewBox="0 0 500 500" enable-background="new 0 0 500 500" xml:space="preserve">
<g>
	<path fill="none" d="M293.544,279.566c0-4.699-4.399-5.399-6.899-5.399h-7.102v10.799h7.102
		C291.145,284.966,293.544,283.168,293.544,279.566z"/>
	<path fill="none" d="M230.474,299.368h-25.251c-0.017-0.026-0.035-0.052-0.051-0.077h-0.001c0.017,0.026,0.035,0.053,0.052,0.079
		c2.419,3.844,6.51,6.618,12.501,6.618c7.044,0,10.739-3.15,12.75-6.618c0.007-0.013,0.016-0.024,0.023-0.037v-0.002
		C230.49,299.344,230.481,299.355,230.474,299.368z"/>
	<polygon fill="none" points="230.545,299.368 230.497,299.368 230.497,299.37 230.497,303.364 230.545,303.327 	"/>
	<polygon fill="#FFF200" points="239.03,205.579 238.03,205.579 231.729,205.579 230.729,205.579 228.729,205.579 228.729,205.581 
		230.729,205.581 230.729,246.283 239.03,246.283 239.03,205.581 241.03,205.581 241.03,205.579 	"/>
	<polygon fill="#FFF200" points="276.742,205.579 275.742,205.579 269.441,205.579 268.441,205.579 266.441,205.579 
		266.441,205.581 268.441,205.581 268.441,246.283 276.742,246.283 276.742,205.581 278.742,205.581 278.742,205.579 	"/>
	<path fill="#FFF200" d="M202.631,256.62v-1.078v-53.763H217h71.251h3.774h4.518c-0.084,0.116-0.155,0.242-0.236,0.359
		c-0.029,0.041-0.056,0.084-0.084,0.126c-0.356,0.518-0.699,1.048-1.025,1.59c-0.332,0.562-0.652,1.132-0.946,1.722
		c-0.022,0.047-0.043,0.095-0.065,0.141c-0.389,0.791-0.736,1.611-1.055,2.45c-0.107,0.284-0.214,0.567-0.313,0.856
		c-0.118,0.343-0.231,0.689-0.336,1.039c-0.114,0.377-0.217,0.759-0.317,1.144c-0.074,0.283-0.155,0.561-0.222,0.848
		c-0.149,0.653-0.276,1.318-0.385,1.992c-0.039,0.245-0.07,0.494-0.104,0.742c-0.072,0.522-0.133,1.049-0.18,1.583
		c-0.021,0.235-0.043,0.47-0.06,0.708c-0.051,0.758-0.086,1.523-0.086,2.302c0,16.701,11.902,28.902,28.302,28.902
		c16.502,0,28.402-12.201,28.402-28.902c0-13.901-8.301-24.702-20.502-27.902v11.001c6.4,3.1,9.701,10.001,9.701,16.901
		c0,9.3-6.001,18.701-17.602,18.701c-11.5,0-17.502-9.401-17.502-18.701c0-0.567,0.03-1.134,0.075-1.7
		c0.011-0.14,0.022-0.279,0.037-0.419c0.054-0.544,0.122-1.087,0.217-1.625c0.004-0.02,0.007-0.041,0.011-0.061
		c0.103-0.575,0.234-1.143,0.383-1.706c0.027-0.101,0.058-0.202,0.086-0.304c0.322-1.143,0.74-2.254,1.256-3.315
		c0.023-0.05,0.05-0.099,0.074-0.148c0.543-1.092,1.188-2.127,1.937-3.085c0.015-0.017,0.027-0.034,0.041-0.051
		c0.381-0.485,0.795-0.944,1.229-1.385h-0.012c0.041-0.043,0.088-0.081,0.131-0.123c0.199-0.2,0.408-0.392,0.621-0.581
		c0.09-0.082,0.178-0.168,0.272-0.248c0.315-0.27,0.642-0.531,0.981-0.778c0.023-0.017,0.047-0.036,0.07-0.054
		c0.321-0.231,0.655-0.447,0.998-0.655c0.057-0.035,0.107-0.073,0.166-0.107c0.08-0.048,0.165-0.09,0.246-0.136v-11.122
		l-8.918,0.002H288.25H217h-38.972v10h13.901v60.895v1.421c-1.088,1.135-2.088,2.344-3,3.617v0.002
		c0.913-1.274,1.913-2.483,3.001-3.619c0.099-0.103,0.192-0.211,0.292-0.313c2.98-3.025,6.51-5.434,10.409-7.161
		c0.976-0.434,1.98-0.81,3-1.155v-0.002C204.611,255.811,203.606,256.187,202.631,256.62z"/>
	<polygon fill="#FFF200" points="109.402,252.563 109.728,251.284 109.039,251.284 	"/>
	<polygon fill="#FFF200" points="108.609,243.516 107.769,246.817 107.769,246.817 	"/>
	<polygon fill="#FFF200" points="112.861,226.801 101.333,185.579 93.032,185.579 81.398,226.671 81.392,226.694 81.392,226.696 
		81.399,226.671 86.66,246.284 85.75,242.856 97.132,202.08 108.751,242.957 112.862,226.801 113.851,222.914 113.85,222.911 	"/>
	<polygon fill="#FFF200" points="230.729,187.98 231.729,187.98 238.03,187.98 239.03,187.98 241.03,187.98 241.03,187.979 
		239.03,187.979 239.03,157.573 230.729,157.573 230.729,187.979 228.729,187.979 228.729,187.98 	"/>
	<polygon fill="#FFF200" points="411.177,284.929 396.958,257.762 384.657,257.762 405.926,294.503 412.407,282.967 
		412.313,282.784 	"/>
	<path fill="#FFF200" d="M230.545,317.446v-10.313v-3.806l-0.048,0.037v2.545c-3.296,2.786-7.586,4.379-12.773,4.379
		c-12.801,0-19.501-10.401-19.501-20.701c0-10.301,6.7-20.702,19.501-20.702c5.4,0,10.001,1.9,13.501,5.4l9.9-6.5
		c-5.7-6.5-13.9-10.102-23.401-10.102c-18.101,0-31.302,13.401-31.302,31.902s13.201,31.901,31.302,31.901
		c4.888,0,9.178-0.996,12.773-2.887v2.22c0.016-0.008,0.032-0.016,0.048-0.022V317.446z"/>
	<polygon fill="#FFF200" points="268.441,187.98 269.441,187.98 275.742,187.98 276.742,187.98 278.742,187.98 278.742,187.979 
		276.742,187.979 276.742,157.573 268.441,157.573 268.441,187.979 266.441,187.979 266.441,187.98 	"/>
	<rect x="263.441" y="302.668" fill="#FFF200" width="11.801" height="17.802"/>
	<path fill="#FFF200" d="M205.18,299.285c-0.672-1.115-1.456-2.947-1.832-4.117h31.397v35.365v3.801H108.299L59.383,163.273h94.547
		v80.409h10.7v-91.109H44.028l59.215,194.96h143.382v-61.049H202.74l0,0c0,0.001,0,0.001,0,0.002
		c-0.13,0.914-0.216,1.943-0.216,3.101c0,1.644,0.213,3.308,0.631,4.921c0.034,0.131,0.071,0.264,0.109,0.396
		c0.024,0.08,0.056,0.176,0.085,0.266C203.724,296.339,204.507,298.17,205.18,299.285L205.18,299.285L205.18,299.285z"/>
	<rect x="205.169" y="299.287" fill="#FFF200" width="0.001" height="0.005"/>
	<path fill="#FFF200" d="M202.988,285.125c0.136-0.624,0.286-1.175,0.438-1.641h0C203.274,283.95,203.124,284.501,202.988,285.125z"
		/>
	<path fill="#FFF200" d="M202.916,285.457c0.004-0.022,0.007-0.047,0.012-0.068C202.923,285.41,202.92,285.436,202.916,285.457z"/>
	<polygon fill="#FFF200" points="111.834,247.083 121.334,247.083 140.383,185.579 127.755,185.579 115.034,234.582 	"/>
	<polygon fill="#FFF200" points="328.84,298.667 328.84,320.469 365.943,320.469 365.943,309.568 365.943,309.567 340.741,309.567 
		340.741,298.667 	"/>
	<path fill="#FFF200" d="M396.831,212.834v11.348c0,8.601-4.501,13.501-12.201,13.501c-7.899,0-12.2-4.801-12.2-13.501V191.18
		h-10.801v34.401c0,14.601,8,22.301,23.001,22.301s22.901-7.7,22.901-22.301v-12.748h0.001v-7.252h-0.001h-10.78v7.253H396.831z"/>
	<polygon fill="#FFF200" points="340.742,280.066 340.743,280.066 340.743,269.966 365.143,269.966 365.143,258.965 
		328.841,258.965 328.841,280.066 	"/>
	<polygon fill="#FFF200" points="407.738,299.766 407.738,304.75 407.738,319.265 419.639,319.265 419.639,300.322 419.639,295.959 
		444.655,251.43 444.63,251.383 444.63,201.78 458.629,201.78 458.629,191.78 418.667,191.78 396.75,191.78 396.75,197.667 
		396.75,201.78 418.667,201.78 433.928,201.78 433.928,252.418 432.263,255.382 412.503,290.553 405.058,303.807 407.738,299.036 	
		"/>
	<polygon fill="#FFF200" points="403.538,300.387 402.442,302.337 403.538,302.953 403.538,302.95 	"/>
	<polygon fill="#27AAE1" points="239.03,205.581 239.03,246.283 230.729,246.283 230.729,205.581 228.729,205.581 225.729,205.581 
		225.729,251.283 244.03,251.283 244.03,205.581 241.03,205.581 	"/>
	<polygon fill="#27AAE1" points="230.729,187.979 230.729,157.573 239.03,157.573 239.03,187.979 241.03,187.979 244.03,187.979 
		244.03,152.573 225.729,152.573 225.729,187.979 228.729,187.979 	"/>
	<polygon fill="#27AAE1" points="268.441,187.979 268.441,157.573 276.742,157.573 276.742,187.979 278.742,187.979 
		281.742,187.979 281.742,152.573 263.441,152.573 263.441,187.979 266.441,187.979 	"/>
	<polygon fill="#27AAE1" points="276.742,205.581 276.742,246.283 268.441,246.283 268.441,205.581 266.441,205.581 
		263.441,205.581 263.441,251.283 281.742,251.283 281.742,205.581 278.742,205.581 	"/>
	<path fill="#00AEEF" d="M407.532,205.581v7.252h-0.001v12.748c0,14.601-7.9,22.301-22.901,22.301s-23.001-7.7-23.001-22.301V191.18
		h10.801v33.002c0,8.7,4.301,13.501,12.2,13.501c7.7,0,12.201-4.9,12.201-13.501v-11.348h-0.08v-7.253h-3.721v18.601
		c0,6.5-2.8,9.701-8.4,9.701c-5.7,0-8.399-3.101-8.399-9.701V187.38h-3.043h-0.758h-10.801h-0.648h-3.151v38.202
		c0,16.901,9.501,26.202,26.802,26.202c17.201,0,26.702-9.301,26.702-26.202v-20.001h-0.001H407.532z"/>
	<path fill="#00AEEF" d="M313.945,279.566c0-15.301-10.502-24.801-27.303-24.801h-27.4v34.401h27.4c6.9,0,11.102-3.601,11.102-9.601
		c0-5.9-4.4-9.602-11.102-9.602h-11.4v15h-11.801v-26.001h23.201c14.401,0,23.103,7.7,23.103,20.603c0,6.8-3.101,12.199-9.101,15.5
		l-1.802,1l13.302,24.401h-12.201l-11.101-22.001h-8h-21.602v26.201h20.301v-22.002h6.701l11.1,22.002h21.902l-14.701-27.002
		C310.645,293.468,313.945,287.168,313.945,279.566z M279.543,274.167h7.102c2.5,0,6.899,0.7,6.899,5.399
		c0,3.602-2.399,5.399-6.899,5.399h-7.102V274.167z M275.242,302.668v17.802h-11.801v-17.802H275.242z"/>
	<path fill="#00AEEF" d="M344.941,298.668h21.4v-18.602h-21.4v-5.899h24.401v-19.401h-44.702v29.502h37.502v10.201h-37.502v30.201
		h45.502v-19.301h-25.201V298.668z M365.143,258.965v11.001h-24.399v10.101h-0.001h-11.901v-21.102H365.143z M365.943,309.567
		L365.943,309.567v10.901H328.84v-21.802h11.901v10.9H365.943z"/>
	<path fill="#EE2A7B" d="M202.988,285.125c-0.02,0.091-0.042,0.17-0.061,0.264c-0.004,0.021-0.008,0.046-0.012,0.068
		c-0.064,0.324-0.125,0.664-0.176,1.027l0,0h43.885v61.049H103.243l-59.215-194.96H164.63v91.109h-10.7v-80.409H59.383
		l48.916,171.061h126.446v-3.801v-35.365h-31.397c0.376,1.17,1.16,3.002,1.832,4.117h-0.001l0,0c0,0.001,0,0.001,0.001,0.002h-0.011
		c0,0.001,0.001,0.003,0.002,0.004c0.017,0.025,0.034,0.051,0.051,0.077h25.251c0.007-0.013,0.016-0.024,0.023-0.037v0.002v0.035
		h0.048v3.959v3.806v10.313v3.352v9.735H111.281l-23.449-79.75l0.011-0.039l-1.183-4.46l-5.261-19.613l-0.007,0.025l0-0.002l0,0.001
		l-1.198-4.517l-0.089-0.337l-2.837-10.579l-12.187-44.189h85.052v80.409h18.301v-98.709l-129.701-0.001l61.268,202.562h150.849
		l-0.021-69.05h-44.294v-4.354c-0.918,1.07-1.678,2.268-2.274,3.549c-0.059,0.124-0.441,0.805-0.833,2.004
		C203.274,283.95,203.124,284.501,202.988,285.125z"/>
	<path fill="#00AEEF" d="M202.631,256.622c-3.899,1.728-7.429,4.136-10.409,7.161c-0.1,0.102-0.193,0.21-0.292,0.313
		c-1.088,1.136-2.088,2.345-3.001,3.619c-0.274,0.382-0.542,0.77-0.799,1.163c-3.86,5.902-5.908,13.069-5.908,20.707
		c0,20.901,14.901,36.202,35.502,36.202c4.7,0,8.801-0.8,12.501-2.4h0.272v-2.566v-2.22c-3.595,1.891-7.885,2.887-12.773,2.887
		c-18.101,0-31.302-13.4-31.302-31.901s13.201-31.902,31.302-31.902c9.501,0,17.701,3.602,23.401,10.102l-9.9,6.5
		c-3.5-3.5-8.101-5.4-13.501-5.4c-12.801,0-19.501,10.401-19.501,20.702c0,10.3,6.7,20.701,19.501,20.701
		c5.187,0,9.477-1.593,12.773-4.379v-2.545v-3.994v-0.002v-0.035c-0.007,0.013-0.016,0.024-0.023,0.037
		c-2.011,3.468-5.706,6.618-12.75,6.618c-5.991,0-10.082-2.774-12.501-6.618c-0.017-0.026-0.035-0.053-0.052-0.079
		c-0.001-0.001-0.002-0.003-0.003-0.004h0.001h0.011c0-0.001,0-0.001-0.001-0.002c-0.672-1.115-1.455-2.946-1.831-4.115
		c-0.029-0.09-0.061-0.186-0.085-0.266c-0.038-0.133-0.075-0.266-0.109-0.396c-0.418-1.613-0.631-3.277-0.631-4.921
		c0-1.157,0.086-2.187,0.216-3.101c0-0.001,0-0.001,0-0.002c0.051-0.363,0.112-0.703,0.176-1.027
		c0.004-0.021,0.007-0.047,0.012-0.068c0.019-0.094,0.041-0.173,0.061-0.264c0.136-0.624,0.286-1.175,0.438-1.641
		c0.391-1.198,0.773-1.878,0.831-2.002c0.596-1.282,1.356-2.479,2.274-3.549c2.488-2.901,6.174-4.849,11.192-4.849
		c4.8,0,8.801,1.8,11.501,5.301l1.2,1.5l16.801-11.102l-1.3-1.8c-6.5-8.602-16.701-13.502-28.202-13.502
		c-3.892,0-7.657,0.58-11.192,1.677c-0.304,0.094-0.6,0.206-0.9,0.308C204.611,255.813,203.606,256.188,202.631,256.622z"/>
	<polygon fill="#27AAE1" points="108.609,243.516 108.751,242.957 97.132,202.08 85.75,242.856 86.66,246.284 87.843,250.744 
		87.843,250.745 87.862,250.816 97.132,217.581 106.626,251.309 107.769,246.817 	"/>
	<polygon fill="#27AAE1" points="81.391,226.696 81.392,226.694 81.398,226.671 93.032,185.579 101.333,185.579 112.861,226.801 
		113.85,222.911 114.928,218.674 104.533,181.379 89.832,181.379 79.279,218.734 80.104,221.842 80.193,222.179 	"/>
	<path fill="#EE2A7B" d="M112.862,226.801l-4.111,16.156l-0.142,0.559l-0.84,3.301l-1.136,4.467h2.406h0.689h14.706l20.349-65.704
		l1.301-4.2h-4.4h-12.838h-4.354l-1.079,4.2l-6.607,25.717l-1.877,7.377l-1.079,4.24L112.862,226.801z M127.755,185.579h12.628
		l-19.049,61.504h-9.5l3.2-12.501L127.755,185.579z"/>
	<path fill="#EE2A7B" d="M351.632,219.381c0-9.101-3.2-17.301-9.101-23.301c-4.1-4.201-9.301-7.101-15.201-8.501
		c-1.199-0.3-2.5-0.5-3.8-0.7v18.201c1.399,0.4,2.7,1,3.8,1.8c4.001,2.8,5.9,7.801,5.9,12.501c0,7.2-4.301,14.901-13.802,14.901
		c-9.399,0-13.7-7.701-13.7-14.901c0-4.8,1.899-9.801,6-12.601c1.094-0.794,2.383-1.39,3.771-1.79v-0.24v-3.662v-10.305v-2.803
		h-4.75h-29.008h-3h-2h-1h-6.301h-1h-2h-3H244.03h-3h-2h-1h-6.301h-1h-2h-3h-51.5v17.601h13.9v63.297
		c0.258-0.395,0.526-0.782,0.8-1.165c0.912-1.273,1.912-2.482,3-3.617v-1.421V201.78h-13.901v-10H217h71.25h13.582l8.918-0.002
		V202.9c-0.081,0.046-0.166,0.088-0.246,0.136c-0.059,0.034-0.109,0.072-0.166,0.107c-0.343,0.208-0.677,0.424-0.998,0.655
		c-0.023,0.018-0.047,0.037-0.07,0.054c-0.34,0.247-0.666,0.508-0.981,0.778c-0.095,0.08-0.183,0.166-0.272,0.248
		c-0.213,0.189-0.422,0.381-0.621,0.581c-0.043,0.042-0.09,0.08-0.131,0.123h0.012c-0.435,0.441-0.849,0.9-1.229,1.385
		c-0.014,0.017-0.026,0.034-0.041,0.051c-0.749,0.958-1.394,1.993-1.937,3.085c-0.024,0.049-0.051,0.098-0.074,0.148
		c-0.516,1.061-0.934,2.172-1.256,3.315c-0.028,0.102-0.059,0.203-0.086,0.304c-0.148,0.563-0.28,1.131-0.383,1.706
		c-0.004,0.02-0.007,0.041-0.011,0.061c-0.095,0.538-0.163,1.081-0.217,1.625c-0.015,0.14-0.026,0.279-0.037,0.419
		c-0.045,0.566-0.075,1.133-0.075,1.7c0,9.3,6.002,18.701,17.502,18.701c11.601,0,17.602-9.401,17.602-18.701
		c0-6.9-3.301-13.801-9.701-16.901v-11.001c12.201,3.2,20.502,14.001,20.502,27.902c0,16.701-11.9,28.902-28.402,28.902
		c-16.399,0-28.302-12.201-28.302-28.902c0-0.779,0.035-1.544,0.086-2.302c0.017-0.238,0.038-0.473,0.06-0.708
		c0.047-0.534,0.107-1.061,0.18-1.583c0.033-0.248,0.064-0.497,0.104-0.742c0.108-0.674,0.235-1.339,0.385-1.992
		c0.066-0.287,0.147-0.564,0.222-0.848c0.101-0.385,0.203-0.767,0.317-1.144c0.104-0.35,0.218-0.696,0.336-1.039
		c0.099-0.289,0.205-0.572,0.313-0.856c0.318-0.839,0.666-1.659,1.055-2.45c0.022-0.046,0.043-0.094,0.065-0.141
		c0.294-0.59,0.614-1.16,0.946-1.722c0.326-0.542,0.669-1.072,1.025-1.59c0.028-0.042,0.055-0.085,0.084-0.126
		c0.081-0.117,0.152-0.243,0.236-0.359h-4.518h-3.774H217h-14.369v53.763v1.078c0.976-0.434,1.98-0.81,3-1.155
		c0.301-0.102,0.596-0.214,0.9-0.308v-49.578h19.198h3h2h1h6.301h1h2h3h19.412h3h2h1h6.301h1h2h3h8.337
		c-1.802,4.199-2.751,8.865-2.751,13.801c0,9,3.199,17.301,9.101,23.301c5.9,6.101,14.102,9.4,23.001,9.4
		c9.002,0,17.201-3.3,23.103-9.4C348.432,236.682,351.632,228.382,351.632,219.381z"/>
	<polygon fill="#00AEEF" points="405.926,294.503 384.657,257.762 396.958,257.762 411.177,284.929 412.313,282.784 
		413.595,280.361 399.559,253.563 377.357,253.563 403.54,298.75 	"/>
	
		<line fill="none" stroke="#EE2A7B" stroke-width="0" stroke-linecap="round" stroke-linejoin="round" x1="393.03" y1="187.981" x2="393.03" y2="187.979"/>
	<path fill="#EE2A7B" d="M393.03,187.981v0.311v17.289h3.721h10.78h0.001h3.8h0.001h18.796v45.802l0.011,0.02l-1.213,2.16
		l-16.52,29.404l-6.481,11.536l-2.386,4.247l-0.002,0.004v1.633v2.563v0.003v20.513h20.401v-19.278v-8.111l22.899-40.658
		l1.045-1.855l0.646-1.145v-46.836h13.9v-17.601H393.03z M412.503,290.553l19.76-35.171l1.665-2.964V201.78h-15.261H396.75v-4.113
		v-5.887h21.917h39.962v10H444.63v49.603l0.025,0.047l-25.017,44.529v4.363v18.942h-11.9V304.75v-4.984v-0.729l-2.681,4.771
		L412.503,290.553z"/>
</g>
</svg>
