<?xml version="1.0" encoding="utf-8"?>
<!-- Generator: Adobe Illustrator 16.0.0, SVG Export Plug-In . SVG Version: 6.00 Build 0)  -->
<!DOCTYPE svg PUBLIC "-//W3C//DTD SVG 1.1//EN" "http://www.w3.org/Graphics/SVG/1.1/DTD/svg11.dtd">
<svg version="1.1" id="Layer_1" xmlns="http://www.w3.org/2000/svg" xmlns:xlink="http://www.w3.org/1999/xlink" x="0px" y="0px"
	 width="500px" height="500px" viewBox="0 0 500 500" enable-background="new 0 0 500 500" xml:space="preserve">
<g>
	<path fill="none" d="M234.167,295.168h0.578v35.365v3.801h-4.2H112.399h-2.565h-1.535L59.383,163.273h94.547v80.409h10.701
		l0-91.109H44.028l59.215,194.96h143.382v-61.049h-43.886c-0.13,0.914-0.216,1.943-0.216,3.101c0,1.643,0.212,3.308,0.631,4.921
		c0.034,0.132,0.072,0.264,0.109,0.396c0.024,0.081,0.056,0.176,0.085,0.266h27.197H234.167z"/>
	<path fill="none" d="M217.724,305.986c7.044,0,10.739-3.15,12.75-6.618h-25.251C207.642,303.212,211.732,305.986,217.724,305.986z"
		/>
	<polygon fill="none" points="97.132,202.08 108.751,242.957 112.861,226.801 101.333,185.579 93.032,185.579 81.398,226.671 
		86.66,246.284 85.75,242.856 	"/>
	<rect x="230.729" y="205.581" fill="none" width="8.301" height="40.703"/>
	<polygon fill="none" points="121.334,247.083 140.383,185.579 127.755,185.579 115.034,234.582 111.833,247.083 	"/>
	<rect x="230.729" y="157.573" fill="none" width="8.301" height="30.407"/>
	<path fill="none" d="M202.631,256.621V201.78H217h71.25h3.775h4.517c-0.084,0.116-0.155,0.242-0.237,0.359
		c-0.028,0.042-0.055,0.085-0.083,0.126c-0.357,0.518-0.7,1.047-1.026,1.59c-0.332,0.562-0.652,1.131-0.946,1.722
		c-0.023,0.046-0.043,0.095-0.065,0.141c-0.389,0.792-0.736,1.611-1.055,2.45c-0.107,0.284-0.215,0.567-0.313,0.856
		c-0.118,0.342-0.23,0.688-0.336,1.039c-0.114,0.376-0.218,0.759-0.317,1.144c-0.073,0.283-0.154,0.562-0.221,0.848
		c-0.149,0.653-0.276,1.318-0.385,1.992c-0.04,0.245-0.07,0.494-0.104,0.742c-0.071,0.522-0.133,1.049-0.18,1.583
		c-0.021,0.235-0.043,0.47-0.059,0.708c-0.051,0.758-0.086,1.523-0.086,2.302c0,16.701,11.901,28.902,28.302,28.902
		c16.501,0,28.402-12.201,28.402-28.902c0-13.901-8.301-24.702-20.502-27.902v11.001c6.4,3.1,9.701,10,9.701,16.901
		c0,9.3-6.001,18.701-17.602,18.701c-11.5,0-17.501-9.401-17.501-18.701c0-0.567,0.03-1.134,0.075-1.7
		c0.011-0.14,0.023-0.28,0.037-0.419c0.054-0.544,0.122-1.087,0.217-1.625c0.004-0.021,0.006-0.041,0.01-0.061
		c0.103-0.575,0.234-1.143,0.384-1.706c0.027-0.102,0.057-0.203,0.085-0.304c0.322-1.143,0.74-2.254,1.256-3.315
		c0.024-0.05,0.05-0.099,0.074-0.148c0.543-1.092,1.188-2.128,1.937-3.085c0.014-0.018,0.027-0.034,0.041-0.051
		c0.382-0.485,0.796-0.944,1.23-1.385h-0.013c0.042-0.042,0.089-0.081,0.131-0.123c0.2-0.2,0.409-0.392,0.621-0.581
		c0.092-0.082,0.18-0.167,0.273-0.248c0.316-0.271,0.642-0.532,0.981-0.778c0.024-0.018,0.047-0.037,0.071-0.054
		c0.321-0.23,0.655-0.447,0.998-0.655c0.056-0.035,0.108-0.073,0.166-0.107c0.08-0.047,0.165-0.09,0.246-0.136v-11.122l-8.918,0.002
		H288.25H217h-38.971v10h13.901v62.315c0.099-0.103,0.192-0.211,0.292-0.313C195.202,260.758,198.732,258.35,202.631,256.621z"/>
	<path fill="none" d="M293.544,279.567c0-4.7-4.4-5.4-6.9-5.4h-7.101v10.8h7.101C291.144,284.967,293.544,283.168,293.544,279.567z"
		/>
	<rect x="268.441" y="157.573" fill="none" width="8.301" height="30.407"/>
	<rect x="268.441" y="205.581" fill="none" width="8.301" height="40.703"/>
	<rect x="263.441" y="302.668" fill="none" width="11.801" height="17.802"/>
	<polygon fill="none" points="340.742,298.668 328.841,298.668 328.841,320.47 365.943,320.47 365.943,309.568 340.742,309.568 	"/>
	<polygon fill="none" points="365.143,258.966 328.841,258.966 328.841,280.067 340.742,280.067 340.742,269.967 365.143,269.967 	
		"/>
	<path fill="none" d="M396.831,212.833v11.348c0,8.601-4.501,13.501-12.201,13.501c-7.9,0-12.2-4.801-12.2-13.501V191.18h-10.801
		v34.402c0,14.601,8,22.301,23.001,22.301s22.901-7.7,22.901-22.301v-12.748v-7.253h-10.78v7.253H396.831z"/>
	<polygon fill="none" points="396.751,191.78 396.751,197.667 396.751,201.78 418.668,201.78 433.929,201.78 433.929,252.417 
		432.264,255.381 412.504,290.552 405.059,303.805 407.738,299.035 407.738,299.765 407.738,304.75 407.738,319.266 419.64,319.266 
		419.64,300.322 419.64,295.959 444.655,251.43 444.63,251.383 444.63,201.78 458.63,201.78 458.63,191.78 418.668,191.78 	"/>
	<polygon fill="#27AAE1" points="239.03,246.283 230.729,246.283 230.729,205.581 225.729,205.581 225.729,251.283 244.03,251.283 
		244.03,205.581 239.03,205.581 	"/>
	<polygon fill="#27AAE1" points="230.729,157.573 239.03,157.573 239.03,187.979 244.03,187.979 244.03,152.573 225.729,152.573 
		225.729,187.979 230.729,187.979 	"/>
	<polygon fill="#27AAE1" points="268.441,157.573 276.742,157.573 276.742,187.979 281.742,187.979 281.742,152.573 
		263.441,152.573 263.441,187.979 268.441,187.979 	"/>
	<polygon fill="#27AAE1" points="276.742,246.283 268.441,246.283 268.441,205.581 263.441,205.581 263.441,251.283 
		281.742,251.283 281.742,205.581 276.742,205.581 	"/>
	<path fill="#00AEEF" d="M407.531,212.833v12.748c0,14.601-7.9,22.301-22.901,22.301s-23.001-7.7-23.001-22.301V191.18h10.801
		v33.002c0,8.7,4.3,13.501,12.2,13.501c7.7,0,12.201-4.9,12.201-13.501v-11.348h-0.08v-7.253h-3.721v18.601
		c0,6.5-2.8,9.701-8.4,9.701c-5.7,0-8.4-3.101-8.4-9.701v-36.802h-3.042h-0.758h-10.801h-0.649h-3.151v38.202
		c0,16.901,9.501,26.202,26.802,26.202c17.201,0,26.702-9.301,26.702-26.202v-20.001h-3.801V212.833z"/>
	<path fill="#00AEEF" d="M313.945,279.567c0-15.302-10.501-24.802-27.302-24.802h-27.401v34.402h27.401
		c6.9,0,11.101-3.601,11.101-9.601c0-5.9-4.4-9.601-11.101-9.601h-11.401v15h-11.801v-26.001h23.202
		c14.401,0,23.102,7.7,23.102,20.602c0,6.8-3.101,12.2-9.101,15.501l-1.801,1l13.301,24.401h-12.2l-11.101-22.001h-8h-21.602v26.201
		h20.301v-22.002h6.701l11.1,22.002h21.902l-14.701-27.002C310.645,293.468,313.945,287.168,313.945,279.567z M279.543,274.167
		h7.101c2.5,0,6.9,0.7,6.9,5.4c0,3.601-2.4,5.399-6.9,5.399h-7.101V274.167z M275.242,320.47h-11.801v-17.802h11.801V320.47z"/>
	<path fill="#00AEEF" d="M344.941,298.668h21.401v-18.601h-21.401v-5.9h24.402v-19.401h-44.703v29.502h37.502v10.201h-37.502v30.201
		h45.503v-19.301h-25.202V298.668z M340.742,280.067h-11.901v-21.102h36.302v11.001h-24.4V280.067z M365.943,309.568v10.901h-37.103
		v-21.802h11.901v10.9H365.943z"/>
	<path fill="#EE2A7B" d="M202.739,286.484h43.886v61.049H103.243l-59.215-194.96H164.63l0,91.109H153.93v-80.409H59.383
		l48.916,171.061h126.446v-3.801v-35.365h-31.397c0.376,1.17,1.16,3.002,1.832,4.117h-0.012c0.018,0.028,0.037,0.055,0.055,0.083
		h25.251c0.007-0.013,0.016-0.024,0.023-0.037v0.037h0.048v31.165H111.281l-23.449-79.75l0.011-0.039l-1.183-4.46l-5.261-19.613
		l-0.007,0.025l-1.198-4.517l-2.928-10.916l-12.187-44.189h85.052v80.409h18.301v-98.709l-129.701-0.001l61.268,202.562h150.849
		l-0.021-69.05h-44.294v-4.353c-0.918,1.07-1.678,2.267-2.274,3.549C204.162,281.686,203.182,283.382,202.739,286.484z"/>
	<path fill="#00AEEF" d="M192.222,263.783c-0.1,0.102-0.193,0.21-0.292,0.313c-1.415,1.476-2.684,3.075-3.8,4.782
		c-3.86,5.902-5.908,13.069-5.908,20.707c0,20.901,14.901,36.202,35.502,36.202c4.7,0,8.801-0.8,12.501-2.4h0.272v-4.786
		c-3.595,1.89-7.885,2.886-12.773,2.886c-18.101,0-31.302-13.4-31.302-31.901s13.201-31.902,31.302-31.902
		c9.501,0,17.701,3.601,23.401,10.101l-9.9,6.5c-3.5-3.5-8.101-5.4-13.501-5.4c-12.801,0-19.501,10.401-19.501,20.702
		c0,10.3,6.7,20.701,19.501,20.701c5.187,0,9.477-1.593,12.773-4.379v-6.539v-0.037c-0.007,0.013-0.016,0.024-0.023,0.037
		c-2.011,3.468-5.706,6.618-12.75,6.618c-5.991,0-10.082-2.774-12.501-6.618c-0.018-0.028-0.037-0.055-0.055-0.083h0.012
		c-0.672-1.115-1.456-2.947-1.832-4.117c-0.029-0.09-0.061-0.185-0.085-0.266c-0.038-0.133-0.075-0.265-0.109-0.396
		c-0.418-1.613-0.631-3.278-0.631-4.921c0-1.157,0.086-2.187,0.216-3.101c0.442-3.103,1.422-4.799,1.518-5.004
		c0.596-1.282,1.356-2.479,2.274-3.549c2.488-2.901,6.174-4.848,11.192-4.848c4.8,0,8.801,1.8,11.501,5.301l1.2,1.5l16.801-11.102
		l-1.3-1.8c-6.5-8.601-16.701-13.501-28.202-13.501c-3.892,0-7.657,0.58-11.192,1.676c-1.336,0.413-2.637,0.902-3.9,1.463
		C198.732,258.35,195.202,260.758,192.222,263.783z"/>
	<polygon fill="#27AAE1" points="97.132,202.08 85.75,242.856 86.66,246.284 87.843,250.745 87.862,250.817 97.132,217.581 
		106.626,251.308 108.609,243.516 108.751,242.957 	"/>
	<polygon fill="#27AAE1" points="81.398,226.671 93.032,185.579 101.333,185.579 112.861,226.801 114.928,218.674 104.533,181.379 
		89.832,181.379 79.279,218.734 80.193,222.179 81.391,226.696 	"/>
	<path fill="#EE2A7B" d="M108.751,242.957l-0.142,0.559l-1.976,7.768h17.801l20.349-65.704l1.301-4.2h-4.4h-12.838h-4.354
		l-1.079,4.2l-6.607,25.717l-1.877,7.377l-2.067,8.127L108.751,242.957z M115.034,234.582l12.721-49.003h12.628l-19.049,61.504h-9.5
		L115.034,234.582z"/>
	<path fill="#EE2A7B" d="M351.632,219.381c0-9.101-3.2-17.301-9.101-23.301c-4.1-4.201-9.301-7.101-15.201-8.501
		c-1.199-0.3-2.5-0.5-3.8-0.7v18.201c1.4,0.4,2.7,1,3.8,1.8c4.001,2.8,5.9,7.801,5.9,12.501c0,7.2-4.3,14.901-13.801,14.901
		c-9.4,0-13.7-7.701-13.7-14.901c0-4.8,1.899-9.801,6-12.601c1.093-0.794,2.382-1.39,3.771-1.79v-0.24v-3.662v-10.305v-2.803h-4.75
		h-29.008h-5h-8.301h-5H244.03h-5h-8.301h-5h-51.5v17.601h13.9v63.297c1.116-1.707,2.385-3.307,3.8-4.782V201.78h-13.901v-10H217
		h71.25h13.582l8.918-0.002v11.122c-0.081,0.046-0.166,0.088-0.246,0.136c-0.058,0.034-0.11,0.072-0.166,0.107
		c-0.343,0.208-0.677,0.424-0.998,0.655c-0.024,0.018-0.047,0.037-0.071,0.054c-0.34,0.247-0.665,0.508-0.981,0.778
		c-0.094,0.08-0.182,0.166-0.273,0.248c-0.212,0.189-0.421,0.381-0.621,0.581c-0.042,0.042-0.089,0.08-0.131,0.123h0.013
		c-0.435,0.441-0.849,0.9-1.23,1.385c-0.014,0.017-0.027,0.034-0.041,0.051c-0.749,0.958-1.394,1.993-1.937,3.085
		c-0.024,0.049-0.05,0.098-0.074,0.148c-0.516,1.061-0.934,2.172-1.256,3.315c-0.028,0.102-0.058,0.203-0.085,0.304
		c-0.149,0.563-0.281,1.131-0.384,1.706c-0.004,0.02-0.006,0.041-0.01,0.061c-0.095,0.538-0.163,1.081-0.217,1.625
		c-0.014,0.14-0.026,0.279-0.037,0.419c-0.045,0.566-0.075,1.133-0.075,1.7c0,9.3,6.001,18.701,17.501,18.701
		c11.601,0,17.602-9.401,17.602-18.701c0-6.9-3.301-13.801-9.701-16.901v-11.001c12.201,3.2,20.502,14.001,20.502,27.902
		c0,16.701-11.901,28.902-28.402,28.902c-16.4,0-28.302-12.201-28.302-28.902c0-0.779,0.035-1.544,0.086-2.302
		c0.016-0.238,0.038-0.473,0.059-0.708c0.047-0.534,0.108-1.061,0.18-1.583c0.034-0.248,0.064-0.497,0.104-0.742
		c0.108-0.674,0.235-1.339,0.385-1.992c0.066-0.287,0.147-0.565,0.221-0.848c0.1-0.385,0.203-0.767,0.317-1.144
		c0.105-0.35,0.218-0.696,0.336-1.039c0.099-0.289,0.206-0.572,0.313-0.856c0.318-0.839,0.666-1.659,1.055-2.45
		c0.022-0.046,0.042-0.094,0.065-0.141c0.294-0.59,0.614-1.16,0.946-1.722c0.326-0.542,0.669-1.072,1.026-1.59
		c0.028-0.042,0.055-0.085,0.083-0.126c0.082-0.117,0.153-0.243,0.237-0.359h-4.517h-3.775H217h-14.369v54.841
		c1.263-0.561,2.564-1.05,3.9-1.463v-49.578h19.198h5h8.301h5h19.411h5h8.301h5h8.337c-1.802,4.199-2.751,8.865-2.751,13.801
		c0,9,3.2,17.301,9.101,23.301c5.9,6.101,14.101,9.4,23.001,9.4c9.001,0,17.201-3.3,23.102-9.4
		C348.432,236.682,351.632,228.382,351.632,219.381z"/>
	<polygon fill="#00AEEF" points="384.657,257.762 396.958,257.762 411.177,284.929 413.595,280.362 399.559,253.562 
		377.357,253.562 403.54,298.75 405.926,294.503 	"/>
	<path fill="#EE2A7B" d="M393.03,187.979v0.313v17.289h3.721h10.78h3.801h18.797v45.802l0.011,0.02l-1.213,2.159l-23.001,40.941
		l-2.386,4.247l-0.002,0.004v4.196v20.516h20.401v-19.278v-8.112l22.9-40.658l1.045-1.855l0.645-1.145v-46.836h13.901v-17.601
		H393.03z M458.63,201.78h-14v49.603l0.025,0.047l-25.016,44.529v4.363v18.943h-11.901V304.75v-4.985v-0.729l-2.68,4.77
		l7.445-13.253l19.76-35.171l1.665-2.964V201.78h-15.261h-21.917v-4.113v-5.887h21.917h39.962V201.78z"/>
</g>
</svg>
